#!OML:ASF E:\acrobat2\Project_11_07_03\Capture day 1\Session 1\Acrobat.ASF
:FULLY-SPECIFIED
:DEGREES
488
root 9.32461 12.3448 10.9359 44.8547 -5.61906 -5.50021
lowerback 35.6492 6.35907 -3.89821
upperback 22.0364 6.22386 5.98202
thorax 5.3758 2.00599 6.65571
lowerneck -14.4706 -2.79528 1.99123
upperneck -27.9657 -6.77687 -10.0203
head -6.72852 -3.09381 -3.58753
rclavicle -5.56597e-014 -3.51849e-014
rhumerus 57.5551 4.61285 -56.9075
rradius 43.0674
rwrist 2.4885
rhand -33.0337 -53.1214
rfingers 7.12502
rthumb -6.24678 -443.009
lclavicle -5.56597e-014 -3.51849e-014
lhumerus 81.0061 -12.5174 66.9099
lradius 16.8812
lwrist 1.81715
lhand -47.2061 -53.0885
lfingers 7.12502
lthumb -19.9054 -24.088
rfemur -126.469 -32.2786 39.4599
rtibia 59.0779
rfoot -186.38 -15.9938
rtoes -21.78
lfemur -113.71 42.0387 -28.5394
ltibia 62.3231
lfoot -163.75 21.0956
ltoes 38.2174
489
root 9.29829 12.2269 11.0207 43.2844 -5.71949 -5.14958
lowerback 36.1389 6.12847 -4.1487
upperback 21.9488 5.87576 5.43573
thorax 5.21991 1.86849 6.27596
lowerneck -14.0323 -2.62285 2.60738
upperneck -27.5928 -6.45537 -9.71203
head -6.64597 -3.00862 -3.57905
rclavicle 1.11319e-014 -1.35174e-014
rhumerus 58.4815 4.72907 -57.5636
rradius 41.9126
rwrist 2.3229
rhand -32.2029 -52.9665
rfingers 7.12502
rthumb -5.44466 -442.877
lclavicle 1.11319e-014 -1.35174e-014
lhumerus 79.2078 -13.1069 65.9038
lradius 17.6231
lwrist 2.34651
lhand -47.0942 -52.6867
lfingers 7.12502
lthumb -19.7978 -23.6749
rfemur -127.614 -31.727 39.9676
rtibia 58.2326
rfoot -186.329 -15.9517
rtoes -21.6118
lfemur -115.984 41.9457 -30.3879
ltibia 61.7021
lfoot -163.394 21.2584
ltoes 38.9623
490
root 9.27111 12.095 11.1084 41.7268 -5.76828 -4.80992
lowerback 36.5814 5.86508 -4.33126
upperback 21.8162 5.50653 4.84076
thorax 5.03964 1.73424 5.81879
lowerneck -13.4499 -2.45277 3.21148
upperneck -27.3428 -6.12751 -9.33407
head -6.62713 -2.91335 -3.54492
rclavicle 4.85035e-014 2.3059e-014
rhumerus 59.2273 4.87618 -58.3565
rradius 40.6498
rwrist 2.76955
rhand -31.0918 -53.1007
rfingers 7.12502
rthumb -4.37181 -443.036
lclavicle 4.85035e-014 2.3059e-014
lhumerus 77.2827 -13.7791 64.7168
lradius 18.6244
lwrist 3.10936
lhand -46.9156 -52.0847
lfingers 7.12502
lthumb -19.6261 -23.0554
rfemur -128.642 -31.2113 40.4574
rtibia 57.4813
rfoot -186.106 -15.8958
rtoes -21.3309
lfemur -118.224 41.7412 -32.1897
ltibia 61.129
lfoot -163.037 21.4553
ltoes 39.4161
491
root 9.24425 11.9507 11.2011 40.139 -5.75645 -4.4546
lowerback 37.0469 5.5596 -4.43453
upperback 21.6354 5.10574 4.19751
thorax 4.80736 1.5994 5.27861
lowerneck -12.7311 -2.28176 3.78256
upperneck -27.2019 -5.77452 -8.86491
head -6.66421 -2.80045 -3.47538
rclavicle -3.02153e-014 -2.41523e-014
rhumerus 59.7624 5.05001 -59.2934
rradius 39.3192
rwrist 3.78888
rhand -29.7141 -53.4405
rfingers 7.12502
rthumb -3.04138 -443.399
lclavicle -3.02153e-014 -2.41523e-014
lhumerus 75.2238 -14.5394 63.5302
lradius 19.8401
lwrist 3.99579
lhand -46.6579 -51.3304
lfingers 7.12502
lthumb -19.3784 -22.276
rfemur -129.504 -30.8146 40.9047
rtibia 56.8493
rfoot -185.704 -15.8348
rtoes -20.9714
lfemur -120.297 41.4177 -33.8879
ltibia 60.6427
lfoot -162.723 21.7094
ltoes 39.469
492
root 9.21746 11.7954 11.2986 38.5399 -5.68672 -4.07531
lowerback 37.5388 5.21635 -4.46572
upperback 21.3999 4.67699 3.51422
thorax 4.50951 1.46423 4.66776
lowerneck -11.9573 -2.11077 4.26861
upperneck -27.0892 -5.38259 -8.29855
head -6.71581 -2.66389 -3.36112
rclavicle 4.21423e-014 1.11816e-014
rhumerus 60.0574 5.23813 -60.3788
rradius 37.9868
rwrist 5.23879
rhand -28.1587 -53.8593
rfingers 7.12502
rthumb -1.53922 -443.833
lclavicle 4.21423e-014 1.11816e-014
lhumerus 72.9985 -15.3671 62.6534
lradius 21.2089
lwrist 4.78201
lhand -46.3241 -50.5433
lfingers 7.12502
lthumb -19.0574 -21.4569
rfemur -130.207 -30.5368 41.3036
rtibia 56.3545
rfoot -185.162 -15.7453
rtoes -20.5697
lfemur -122.172 40.9801 -35.4765
ltibia 60.2566
lfoot -162.354 21.9309
ltoes 39.4514
493
root 9.19031 11.6303 11.4013 36.9344 -5.56763 -3.67079
lowerback 38.0617 4.84662 -4.43619
upperback 21.1116 4.23024 2.80773
thorax 4.14077 1.33016 4.00826
lowerneck -11.2206 -1.95474 4.54753
upperneck -26.9106 -4.94578 -7.55796
head -6.73259 -2.49839 -3.15634
rclavicle -3.49861e-014 2.98177e-015
rhumerus 60.0915 5.43188 -61.5902
rradius 36.7266
rwrist 6.88351
rhand -26.5895 -54.2494
rfingers 7.12502
rthumb -0.0235963 -444.229
lclavicle -3.49861e-014 2.98177e-015
lhumerus 70.5743 -16.2132 62.3254
lradius 22.6827
lwrist 5.29556
lhand -45.9414 -49.8356
lfingers 7.12502
lthumb -18.6893 -20.7134
rfemur -130.732 -30.3747 41.6365
rtibia 56.0122
rfoot -184.53 -15.6344
rtoes -20.0617
lfemur -123.813 40.4532 -36.9453
ltibia 59.9812
lfoot -161.859 22.0296
ltoes 39.6871
494
root 9.16242 11.4567 11.5091 35.3276 -5.40474 -3.24987
lowerback 38.6162 4.46016 -4.35007
upperback 20.7776 3.77574 2.09255
thorax 3.70475 1.19905 3.31609
lowerneck -10.541 -1.79862 4.69368
upperneck -26.6554 -4.48487 -6.77621
head -6.71394 -2.3134 -2.91908
rclavicle -1.59028e-014 -1.98785e-015
rhumerus 59.854 5.61662 -62.9539
rradius 35.6104
rwrist 8.53291
rhand -25.1655 -54.5287
rfingers 7.12502
rthumb 1.35176 -444.504
lclavicle -1.59028e-014 -1.98785e-015
lhumerus 67.8901 -17.0153 62.808
lradius 24.2073
lwrist 5.29947
lhand -45.5537 -49.2964
lfingers 7.12502
lthumb -18.3164 -20.1387
rfemur -131.051 -30.3195 41.8929
rtibia 55.8462
rfoot -183.852 -15.5328
rtoes -19.3577
lfemur -125.195 39.8683 -38.2873
ltibia 59.8384
lfoot -161.241 21.9623
ltoes 40.3699
495
root 9.13328 11.2753 11.621 33.7532 -5.20495 -2.81622
lowerback 39.1572 4.06683 -4.22067
upperback 20.4116 3.32435 1.38964
thorax 3.22624 1.0716 2.6198
lowerneck -9.97235 -1.6393 4.7302
upperneck -26.2957 -4.02441 -6.04645
head -6.64577 -2.11782 -2.68438
rclavicle -2.5842e-015 4.93856e-015
rhumerus 59.3611 5.80348 -64.3456
rradius 34.681
rwrist 9.91621
rhand -24.007 -54.675
rfingers 7.12502
rthumb 2.47064 -444.64
lclavicle -2.5842e-015 4.93856e-015
lhumerus 65.0007 -17.6915 63.9217
lradius 25.8158
lwrist 4.96814
lhand -45.1905 -48.9094
lfingers 7.12502
lthumb -17.967 -19.7193
rfemur -131.177 -30.3459 42.0754
rtibia 55.8771
rfoot -183.164 -15.4609
rtoes -18.5777
lfemur -126.341 39.2405 -39.5131
ltibia 59.8433
lfoot -160.603 21.7586
ltoes 41.589
496
root 9.10339 11.0867 11.736 32.2239 -4.97271 -2.35306
lowerback 39.6611 3.67405 -4.07108
upperback 20.026 2.8805 0.72318
thorax 2.72319 0.944919 1.95627
lowerneck -9.48163 -1.48194 4.63302
upperneck -25.8861 -3.58346 -5.39258
head -6.55252 -1.91548 -2.45495
rclavicle 1.81236e-015 -1.5173e-014
rhumerus 58.642 6.00695 -65.6702
rradius 33.9538
rwrist 10.8817
rhand -23.1167 -54.7099
rfingers 7.12502
rthumb 3.33036 -444.664
lclavicle 1.81236e-015 -1.5173e-014
lhumerus 61.9672 -18.1828 65.5007
lradius 27.5235
lwrist 4.46305
lhand -44.8584 -48.6314
lfingers 7.12502
lthumb -17.6474 -19.4122
rfemur -131.117 -30.4603 42.1707
rtibia 56.1234
rfoot -182.519 -15.447
rtoes -18.1192
lfemur -127.254 38.5654 -40.6318
ltibia 59.997
lfoot -160.24 21.6372
ltoes 43.0546
497
root 9.07358 10.8922 11.8542 30.7177 -4.71638 -1.85804
lowerback 40.1548 3.29421 -3.92192
upperback 19.6265 2.45117 0.107349
thorax 2.19391 0.819068 1.34756
lowerneck -9.03042 -1.32048 4.37966
upperneck -25.476 -3.1516 -4.79542
head -6.45554 -1.69969 -2.22025
rclavicle 5.41688e-015 1.03306e-014
rhumerus 57.7257 6.24762 -66.8778
rradius 33.4251
rwrist 11.3884
rhand -22.3803 -54.6359
rfingers 7.12502
rthumb 4.0415 -444.577
lclavicle 5.41688e-015 1.03306e-014
lhumerus 58.8406 -18.4696 67.4204
lradius 29.311
lwrist 3.85235
lhand -44.5842 -48.4285
lfingers 7.12502
lthumb -17.3835 -19.1858
rfemur -130.84 -30.6777 42.1656
rtibia 56.6068
rfoot -181.997 -15.5436
rtoes -16.3398
lfemur -127.908 37.8708 -41.6391
ltibia 60.2681
lfoot -160.378 21.8245
ltoes 44.6323
498
root 9.04507 10.6925 11.9768 29.2134 -4.44425 -1.3488
lowerback 40.7792 2.94498 -3.78605
upperback 19.0984 2.04236 -0.445405
thorax 1.63222 0.69683 0.800352
lowerneck -8.60878 -1.14317 3.98352
upperneck -25.0663 -2.71395 -4.25859
head -6.3565 -1.46455 -1.98365
rclavicle -4.96962e-016 -8.4763e-015
rhumerus 56.6317 6.54644 -67.9631
rradius 33.0618
rwrist 11.4898
rhand -21.6902 -54.4914
rfingers 7.12502
rthumb 4.70788 -444.419
lclavicle -4.96962e-016 -8.4763e-015
lhumerus 55.6717 -18.5804 69.5301
lradius 31.1326
lwrist 3.18255
lhand -44.413 -48.2829
lfingers 7.12502
lthumb -17.2187 -19.0257
rfemur -130.339 -30.9891 42.093
rtibia 57.2243
rfoot -182.014 -15.8522
rtoes -12.8031
lfemur -128.296 37.2069 -42.5159
ltibia 60.5627
lfoot -161.394 22.3898
ltoes 45.9452
499
root 9.01933 10.4891 12.1064 27.6619 -4.15248 -0.844588
lowerback 41.3588 2.61097 -3.63938
upperback 18.6744 1.6589 -0.945133
thorax 1.02234 0.579417 0.30726
lowerneck -8.18118 -0.931326 3.5204
upperneck -24.6753 -2.25686 -3.83567
head -6.26828 -1.20677 -1.77539
rclavicle 6.55989e-015 -2.45375e-016
rhumerus 55.3683 6.91595 -68.9578
rradius 32.8121
rwrist 11.3023
rhand -21.0167 -54.3604
rfingers 7.12502
rthumb 5.35826 -444.273
lclavicle 6.55989e-015 -2.45375e-016
lhumerus 52.5274 -18.5774 71.6524
lradius 32.9017
lwrist 2.51223
lhand -44.3583 -48.2017
lfingers 7.12502
lthumb -17.1661 -18.94
rfemur -129.585 -31.4364 41.9616
rtibia 57.7494
rfoot -182.783 -16.4263
rtoes -6.63832
lfemur -128.391 36.6381 -43.2154
ltibia 60.74
lfoot -163.657 23.2956
ltoes 46.612
500
root 8.99594 10.283 12.2431 26.0428 -3.8332 -0.35148
lowerback 42.0422 2.30066 -3.49207
upperback 18.2288 1.29773 -1.38452
thorax 0.353375 0.466199 -0.126511
lowerneck -7.72917 -0.66358 3.06884
upperneck -24.3068 -1.76429 -3.59525
head -6.19547 -0.920999 -1.63105
rclavicle 6.36111e-015 -1.6847e-014
rhumerus 53.9379 7.35479 -69.9161
rradius 32.635
rwrist 10.9634
rhand -20.3298 -54.2725
rfingers 7.12502
rthumb 6.02144 -444.167
lclavicle 6.36111e-015 -1.6847e-014
lhumerus 49.4591 -18.5152 73.6993
lradius 34.5138
lwrist 1.79648
lhand -44.4138 -48.2341
lfingers 7.12502
lthumb -17.2195 -18.977
rfemur -128.612 -32.0233 41.7819
rtibia 57.9097
rfoot -184.715 -16.8978
rtoes 0.910276
lfemur -128.205 36.207 -43.7149
ltibia 60.6399
lfoot -167.166 24.1808
ltoes 46.5388
501
root 8.97378 10.0728 12.3841 24.4244 -3.48536 0.141214
lowerback 42.7381 2.01299 -3.36493
upperback 17.7593 0.956296 -1.76257
thorax -0.349543 0.354826 -0.486923
lowerneck -7.24911 -0.32674 2.67698
upperneck -23.9477 -1.22417 -3.57563
head -6.13353 -0.603092 -1.57104
rclavicle 6.75868e-015 1.03368e-014
rhumerus 52.3355 7.84834 -70.9231
rradius 32.5055
rwrist 10.6118
rhand -19.5834 -54.2292
rfingers 7.12502
rthumb 6.74203 -444.102
lclavicle 6.75868e-015 1.03368e-014
lhumerus 46.5146 -18.4438 75.6042
lradius 35.8717
lwrist 0.979211
lhand -44.5379 -48.3852
lfingers 7.12502
lthumb -17.339 -19.1387
rfemur -127.595 -32.6783 41.5933
rtibia 57.4458
rfoot -187.797 -16.9971
rtoes 9.04132
lfemur -127.862 35.8803 -44.0475
ltibia 60.1028
lfoot -171.628 24.6712
ltoes 45.6708
